<svg width="16" height="16" viewBox="0 0 16 16" fill="none" xmlns="http://www.w3.org/2000/svg">
<path d="M14.5 3.25V5.75C14.5 5.94891 14.421 6.13968 14.2803 6.28033C14.1397 6.42098 13.9489 6.5 13.75 6.5C13.5511 6.5 13.3603 6.42098 13.2197 6.28033C13.079 6.13968 13 5.94891 13 5.75V4H11.25C11.0511 4 10.8603 3.92098 10.7197 3.78033C10.579 3.63968 10.5 3.44891 10.5 3.25C10.5 3.05109 10.579 2.86032 10.7197 2.71967C10.8603 2.57902 11.0511 2.5 11.25 2.5H13.75C13.9489 2.5 14.1397 2.57902 14.2803 2.71967C14.421 2.86032 14.5 3.05109 14.5 3.25ZM4.75 12H3V10.25C3 10.0511 2.92098 9.86032 2.78033 9.71967C2.63968 9.57902 2.44891 9.5 2.25 9.5C2.05109 9.5 1.86032 9.57902 1.71967 9.71967C1.57902 9.86032 1.5 10.0511 1.5 10.25V12.75C1.5 12.9489 1.57902 13.1397 1.71967 13.2803C1.86032 13.421 2.05109 13.5 2.25 13.5H4.75C4.94891 13.5 5.13968 13.421 5.28033 13.2803C5.42098 13.1397 5.5 12.9489 5.5 12.75C5.5 12.5511 5.42098 12.3603 5.28033 12.2197C5.13968 12.079 4.94891 12 4.75 12ZM13.75 9.5C13.5511 9.5 13.3603 9.57902 13.2197 9.71967C13.079 9.86032 13 10.0511 13 10.25V12H11.25C11.0511 12 10.8603 12.079 10.7197 12.2197C10.579 12.3603 10.5 12.5511 10.5 12.75C10.5 12.9489 10.579 13.1397 10.7197 13.2803C10.8603 13.421 11.0511 13.5 11.25 13.5H13.75C13.9489 13.5 14.1397 13.421 14.2803 13.2803C14.421 13.1397 14.5 12.9489 14.5 12.75V10.25C14.5 10.0511 14.421 9.86032 14.2803 9.71967C14.1397 9.57902 13.9489 9.5 13.75 9.5ZM2.25 6.5C2.44891 6.5 2.63968 6.42098 2.78033 6.28033C2.92098 6.13968 3 5.94891 3 5.75V4H4.75C4.94891 4 5.13968 3.92098 5.28033 3.78033C5.42098 3.63968 5.5 3.44891 5.5 3.25C5.5 3.05109 5.42098 2.86032 5.28033 2.71967C5.13968 2.57902 4.94891 2.5 4.75 2.5H2.25C2.05109 2.5 1.86032 2.57902 1.71967 2.71967C1.57902 2.86032 1.5 3.05109 1.5 3.25V5.75C1.5 5.94891 1.57902 6.13968 1.71967 6.28033C1.86032 6.42098 2.05109 6.5 2.25 6.5ZM5.5 5C5.30109 5 5.11032 5.07902 4.96967 5.21967C4.82902 5.36032 4.75 5.55109 4.75 5.75V10.25C4.75 10.4489 4.82902 10.6397 4.96967 10.7803C5.11032 10.921 5.30109 11 5.5 11C5.69891 11 5.88968 10.921 6.03033 10.7803C6.17098 10.6397 6.25 10.4489 6.25 10.25V5.75C6.25 5.55109 6.17098 5.36032 6.03033 5.21967C5.88968 5.07902 5.69891 5 5.5 5ZM11.25 10.25V5.75C11.25 5.55109 11.171 5.36032 11.0303 5.21967C10.8897 5.07902 10.6989 5 10.5 5C10.3011 5 10.1103 5.07902 9.96967 5.21967C9.82902 5.36032 9.75 5.55109 9.75 5.75V10.25C9.75 10.4489 9.82902 10.6397 9.96967 10.7803C10.1103 10.921 10.3011 11 10.5 11C10.6989 11 10.8897 10.921 11.0303 10.7803C11.171 10.6397 11.25 10.4489 11.25 10.25ZM8 5C7.80109 5 7.61032 5.07902 7.46967 5.21967C7.32902 5.36032 7.25 5.55109 7.25 5.75V10.25C7.25 10.4489 7.32902 10.6397 7.46967 10.7803C7.61032 10.921 7.80109 11 8 11C8.19891 11 8.38968 10.921 8.53033 10.7803C8.67098 10.6397 8.75 10.4489 8.75 10.25V5.75C8.75 5.55109 8.67098 5.36032 8.53033 5.21967C8.38968 5.07902 8.19891 5 8 5Z" fill="black"/>
</svg>
